<svg version="1.0" xmlns="http://www.w3.org/2000/svg" fill="currentColor" width="549.000000pt" height="266.000000pt" viewBox="0 0 549.000000 266.000000" preserveAspectRatio="xMidYMid meet">

<g transform="translate(0.000000,266.000000) scale(0.100000,-0.100000)" fill="currentColor" stroke="none">
<path d="M2962 2428 c-5 -7 -17 -28 -26 -46 -9 -18 -50 -68 -90 -112 -67 -73
-73 -83 -85 -147 -8 -37 -29 -104 -48 -149 -31 -72 -41 -84 -83 -110 -34 -20
-47 -35 -47 -51 0 -19 2 -21 19 -12 28 15 35 3 13 -21 -18 -20 -17 -20 16 -20
l34 -1 -24 -20 c-23 -19 -23 -20 -5 -41 19 -21 19 -21 -9 -16 -22 4 -25 3 -16
-8 6 -8 24 -14 40 -14 40 0 106 -67 141 -143 17 -36 17 -37 -2 -37 -11 0 -20
-4 -20 -9 0 -5 14 -9 30 -9 22 1 29 5 26 15 -3 7 -1 23 4 36 5 12 12 36 16 52
l7 30 13 -30 c7 -16 13 -48 14 -70 l1 -40 16 29 16 30 17 -34 17 -33 7 28 7
29 24 -30 24 -29 1 30 0 30 25 -30 25 -30 -6 30 -7 29 43 -32 c24 -17 46 -30
48 -27 11 11 -160 191 -230 242 -65 47 -76 59 -61 65 10 4 43 19 73 32 l56 24
43 136 c41 130 44 136 69 136 52 0 57 17 11 32 l-44 15 45 10 45 10 -43 13
c-46 14 -46 19 1 37 l32 11 -49 1 -50 1 29 30 c31 32 30 35 -9 20 -29 -11 -32
-4 -11 24 22 29 18 39 -7 22 -34 -24 -38 -20 -21 22 l15 37 -28 -25 c-24 -22
-26 -23 -20 -5 4 11 10 34 13 50 l5 30 -22 -32 c-12 -18 -24 -33 -26 -33 -1 0
3 20 10 45 15 48 15 53 -2 33z"/>
<path d="M2360 2265 c0 -2 17 -14 38 -25 l37 -21 -32 4 c-18 2 -33 2 -33 0 0
-2 21 -14 48 -26 l47 -22 -50 -4 -50 -4 55 -12 c54 -12 55 -13 23 -20 -48 -11
-40 -24 10 -18 l42 6 -35 -37 -35 -37 40 16 40 17 -35 -37 c-27 -29 -30 -36
-15 -32 72 21 71 21 88 -25 10 -24 17 -67 17 -96 0 -29 4 -52 8 -52 4 0 30 14
56 31 47 29 48 31 42 68 -3 21 -24 75 -45 122 -50 106 -124 183 -191 198 -50
12 -70 13 -70 6z"/>
<path d="M2519 1762 c-19 -4 -32 -53 -23 -88 7 -29 20 -31 29 -4 3 11 15 25
26 30 22 12 25 30 5 30 -8 0 -16 8 -18 18 -2 10 -10 16 -19 14z"/>
<path d="M2720 1568 c0 -44 -15 -58 -61 -58 -21 0 -41 -4 -44 -10 -4 -6 10
-10 34 -10 22 0 43 -4 46 -10 3 -5 11 -10 16 -10 6 0 7 5 4 10 -4 6 5 20 19
31 31 25 32 33 6 66 l-20 26 0 -35z"/>
<path d="M1160 1475 l0 -35 525 0 525 0 0 35 0 35 -525 0 -525 0 0 -35z"/>
<path d="M3270 1475 l0 -35 525 0 525 0 0 35 0 35 -525 0 -525 0 0 -35z"/>
<path d="M188 1239 c-24 -13 -23 -36 1 -49 27 -14 5075 -14 5102 0 10 6 19 17
19 25 0 8 -9 19 -19 25 -27 14 -5079 14 -5103 -1z"/>
<path d="M190 620 l0 -380 40 0 40 0 0 170 0 170 190 0 190 0 0 -170 0 -170
40 0 40 0 0 380 0 380 -40 0 -40 0 -2 -167 -3 -168 -185 0 -185 0 -3 168 -2
167 -40 0 -40 0 0 -380z"/>
<path d="M1125 983 c-15 -39 -255 -733 -255 -738 0 -3 21 -5 47 -3 l46 3 32
95 32 95 163 0 163 0 32 -95 32 -95 46 -3 c26 -2 47 1 47 5 0 4 -57 176 -127
380 l-128 373 -61 0 c-50 0 -63 -3 -69 -17z m194 -455 c1 -16 -12 -18 -129
-18 -71 0 -130 4 -130 9 0 5 30 98 67 208 l67 198 62 -190 c35 -104 63 -198
63 -207z"/>
<path d="M1606 973 c4 -15 48 -185 99 -378 l91 -350 60 -3 59 -3 78 268 c42
147 82 285 88 306 6 22 12 37 15 34 4 -3 184 -596 184 -604 0 -2 27 -3 59 -3
48 0 61 3 65 18 3 9 37 154 76 322 39 168 77 331 85 363 l13 58 -46 -3 -46 -3
-37 -165 c-21 -91 -52 -232 -70 -315 -17 -82 -35 -156 -38 -163 -4 -7 -19 27
-35 80 -15 51 -59 198 -98 326 l-71 233 -46 -3 -45 -3 -90 -317 c-50 -175 -93
-318 -96 -318 -3 0 -41 145 -86 323 l-80 322 -47 3 -48 3 7 -28z"/>
<path d="M2710 620 l0 -380 45 0 45 0 0 380 0 380 -45 0 -45 0 0 -380z"/>
<path d="M2973 818 c-76 -100 -142 -188 -146 -195 -5 -8 44 -77 140 -198 l148
-185 59 0 c55 0 58 1 44 18 -8 9 -77 93 -152 186 -90 111 -134 172 -128 180 5
6 71 93 146 194 l136 182 -55 0 -55 0 -137 -182z"/>
<path d="M3630 620 l0 -380 216 0 215 0 -3 38 -3 37 -167 3 -168 2 0 130 0
130 145 0 145 0 0 40 0 40 -145 0 -145 0 0 130 0 130 165 0 165 0 0 40 0 40
-210 0 -210 0 0 -380z"/>
<path d="M4150 994 c0 -3 56 -110 125 -238 l125 -231 0 -143 0 -142 45 0 45 0
0 138 0 137 130 238 c72 131 130 241 130 243 0 3 -23 4 -51 2 l-51 -3 -101
-194 -100 -194 -99 196 -98 197 -50 0 c-28 0 -50 -3 -50 -6z"/>
<path d="M4870 620 l0 -380 210 0 210 0 0 40 0 40 -165 0 -165 0 0 130 0 130
145 0 145 0 0 40 0 40 -145 0 -145 0 0 130 0 130 165 0 165 0 0 40 0 40 -210
0 -210 0 0 -380z"/>
</g>
</svg>
